<svg width="37" height="35" viewBox="0 0 37 35" fill="none" xmlns="http://www.w3.org/2000/svg">
<path d="M15.2372 0C13.7618 0 12.3848 0.787889 11.642 2.05618L9.60952 5.52632H6.0125C2.6973 5.52632 0 8.2121 0 11.5132V29.0132C0 32.3142 2.6973 35 6.0125 35H30.9875C34.3027 35 37 32.3142 37 29.0132V11.5132C37 8.2121 34.3027 5.52632 30.9875 5.52632H27.3905L25.358 2.05618C24.6152 0.787889 23.2382 0 21.7628 0H15.2372ZM18.5 11.0526C23.0898 11.0526 26.825 14.7709 26.825 19.3421C26.825 23.9133 23.0898 27.6316 18.5 27.6316C13.9102 27.6316 10.175 23.9133 10.175 19.3421C10.175 14.7709 13.9102 11.0526 18.5 11.0526ZM18.5 13.8158C17.028 13.8158 15.6164 14.398 14.5756 15.4344C13.5347 16.4708 12.95 17.8764 12.95 19.3421C12.95 20.8078 13.5347 22.2134 14.5756 23.2498C15.6164 24.2862 17.028 24.8684 18.5 24.8684C19.972 24.8684 21.3836 24.2862 22.4244 23.2498C23.4653 22.2134 24.05 20.8078 24.05 19.3421C24.05 17.8764 23.4653 16.4708 22.4244 15.4344C21.3836 14.398 19.972 13.8158 18.5 13.8158Z" fill="#2E4ADD"/>
</svg>
