<svg width="27" height="27" viewBox="0 0 27 27" fill="none" xmlns="http://www.w3.org/2000/svg">
<path fill-rule="evenodd" clip-rule="evenodd" d="M13.5 0C6.04144 0 0 6.19342 0 13.8396C0 19.9566 3.87017 25.139 9.23204 26.9741C9.90331 27.1015 10.1519 26.6767 10.1519 26.3029C10.1519 25.9716 10.1436 25.105 10.1354 23.9496C6.38121 24.7822 5.58563 22.0975 5.58563 22.0975C4.97237 20.5003 4.08563 20.0755 4.08563 20.0755C2.85912 19.2174 4.1768 19.2344 4.1768 19.2344C5.52762 19.3364 6.24862 20.6617 6.24862 20.6617C7.45028 22.7772 9.40608 22.1655 10.1768 21.8086C10.3011 20.9166 10.6492 20.3049 11.0304 19.9566C8.03039 19.6082 4.88122 18.4188 4.88122 13.1175C4.88122 11.6052 5.40331 10.3733 6.27348 9.40482C6.1326 9.05649 5.66851 7.64619 6.40608 5.74314C6.40608 5.74314 7.54144 5.36933 10.1188 7.16193C11.1961 6.85609 12.3481 6.70316 13.5 6.69467C14.6436 6.69467 15.8039 6.85609 16.8812 7.16193C19.4586 5.36933 20.5939 5.74314 20.5939 5.74314C21.3315 7.64619 20.8674 9.05649 20.7265 9.40482C21.5884 10.3733 22.1105 11.6052 22.1105 13.1175C22.1105 18.4358 18.953 19.5997 15.9447 19.9481C16.4254 20.3729 16.8646 21.2224 16.8646 22.5138C16.8646 24.3659 16.8481 25.8526 16.8481 26.3114C16.8481 26.6852 17.0884 27.11 17.7762 26.9741C23.1381 25.139 27 19.9566 27 13.8481C27 6.19342 20.9586 0 13.5 0Z" fill="#EC90F4"/>
</svg>
