<svg width="32" height="32" viewBox="0 0 32 32" fill="none" xmlns="http://www.w3.org/2000/svg">
<path fill-rule="evenodd" clip-rule="evenodd" d="M0 16C0 7.16344 7.16344 0 16 0C24.8366 0 32 7.16344 32 16C32 24.8366 24.8366 32 16 32C7.16344 32 0 24.8366 0 16ZM14 16V21C14 22.1046 14.8954 23 16 23C17.1046 23 18 22.1046 18 21V16C18 14.8954 17.1046 14 16 14C14.8954 14 14 14.8954 14 16ZM16 9C17.1046 9 18 9.89543 18 11C18 12.1046 17.1046 13 16 13C14.8954 13 14 12.1046 14 11C14 9.89543 14.8954 9 16 9Z" fill="#2E4ADD"/>
</svg>
