<svg width="27" height="27" viewBox="0 0 27 27" fill="none" xmlns="http://www.w3.org/2000/svg">
<path d="M21.375 0H5.625C2.51888 0 0 2.51888 0 5.625V21.375C0 24.4811 2.51888 27 5.625 27H21.375C24.4823 27 27 24.4811 27 21.375V5.625C27 2.51888 24.4823 0 21.375 0ZM9 21.375H5.625V9H9V21.375ZM7.3125 7.5735C6.22575 7.5735 5.34375 6.68475 5.34375 5.589C5.34375 4.49325 6.22575 3.6045 7.3125 3.6045C8.39925 3.6045 9.28125 4.49325 9.28125 5.589C9.28125 6.68475 8.40038 7.5735 7.3125 7.5735ZM22.5 21.375H19.125V15.0705C19.125 11.2815 14.625 11.5684 14.625 15.0705V21.375H11.25V9H14.625V10.9856C16.1955 8.07638 22.5 7.8615 22.5 13.7711V21.375Z" fill="#EC90F4"/>
</svg>
