<svg width="23" height="25" viewBox="0 0 23 25" fill="none" xmlns="http://www.w3.org/2000/svg">
<path d="M19.455 14.91C20.325 15.81 21.12 16.905 21.84 18.195C22.56 19.485 22.92 20.655 22.92 21.705C22.92 22.665 22.56 23.445 21.84 24.045C21.33 24.435 20.775 24.63 20.175 24.63C19.185 24.63 18.165 24.195 17.115 23.325C16.065 22.425 14.865 21.21 13.515 19.68C13.035 19.11 12.585 18.615 12.165 18.195L11.49 19.005C10.17 20.535 9 21.735 7.98 22.605C6.99 23.475 6 23.91 5.01 23.91C4.14 23.91 3.33 23.475 2.58 22.605C2.01 21.915 1.725 21.15 1.725 20.31C1.725 19.29 2.07 18.3 2.76 17.34C3.48 16.38 4.44 15.3 5.64 14.1C5.97 13.77 6.315 13.395 6.675 12.975C6.135 12.315 5.265 11.385 4.065 10.185C2.745 8.865 1.755 7.77 1.095 6.9C0.465 6.03 0.15 5.145 0.15 4.245C0.15 3.615 0.345 2.97 0.735 2.31C1.305 1.41 2.055 0.959999 2.985 0.959999C4.125 0.959999 5.355 1.485 6.675 2.535C8.025 3.555 9.39 4.785 10.77 6.225C11.16 6.615 11.415 6.855 11.535 6.945C12.465 5.715 13.665 4.575 15.135 3.525C16.635 2.445 18.03 1.905 19.32 1.905C20.46 1.905 21.39 2.37 22.11 3.3C22.68 4.05 22.965 4.8 22.965 5.55C22.965 6.6 22.425 7.8 21.345 9.15C20.865 9.78 19.62 11.07 17.61 13.02L19.455 14.91Z" fill="white"/>
</svg>
